# xmcd CD database file
#
# Track frame offsets:
#	150
#	20724
#	46005
#	65966
#	93364
#	120821
#	140560
#	168504
#	180162
#	206755
#
# Disc length: 3090 seconds
#
# Revision: 0
# Processed by: cddbd v1.5.2PL0 Copyright (c) Steve Scherf et al.
# Submitted via: CDex 1.50Beta7
#
DISCID=840c100a
DTITLE=Teresa Zabala - Quinteteuria
DYEAR=2004
DGENRE=Jazz
TTITLE0=San Juan
TTITLE1=Insomnio
TTITLE2=Sencillos deseos
TTITLE3=Pudo ser una samba
TTITLE4=Euria
TTITLE5=La evidencia
TTITLE6=Tximeletak
TTITLE7=Maialen
TTITLE8=Bolero
TTITLE9=Sapos y culebras
EXTD=YEAR: 2004
EXTT0=
EXTT1=
EXTT2=
EXTT3=
EXTT4=
EXTT5=
EXTT6=
EXTT7=
EXTT8=
EXTT9=
PLAYORDER=
